<svg width="160" height="43" viewBox="0 0 160 43" fill="none" xmlns="http://www.w3.org/2000/svg">
<path d="M7.10404 37.488C5.24804 37.488 3.60004 36.864 2.16004 35.616C0.720044 34.368 4.4018e-05 32.736 4.4018e-05 30.72C4.4018e-05 27.744 1.55204 24.912 4.65604 22.224C6.16004 20.912 8.12804 19.824 10.56 18.96C13.024 18.064 15.744 17.536 18.72 17.376C19.872 14.464 21.344 10.032 23.136 4.08002C23.168 3.95202 23.184 3.72802 23.184 3.40802C23.184 3.05602 23.024 2.76802 22.704 2.54402V1.87202C25.712 1.36002 28.576 1.10402 31.296 1.10402L34.944 1.29602C35.264 1.61602 35.584 2.33602 35.904 3.45602C36.224 4.54402 36.432 6.00002 36.528 7.82402C36.624 9.64802 36.688 13.856 36.72 20.448C40.24 21.824 43.392 23.488 46.176 25.44C46.016 26.048 45.648 26.656 45.072 27.264C44.528 27.872 44.016 28.336 43.536 28.656L42.864 29.088C41.136 27.424 39.104 25.936 36.768 24.624C36.928 29.104 37.536 31.344 38.592 31.344C38.944 31.344 39.328 31.264 39.744 31.104L40.896 33.744C38.592 35.088 36.176 35.76 33.648 35.76C29.616 35.76 27.6 33.344 27.6 28.512V21.648C25.712 21.264 23.872 21.024 22.08 20.928C20.192 25.792 18.192 29.648 16.08 32.496C13.616 35.824 10.624 37.488 7.10404 37.488ZM5.37604 30.432C5.37604 31.232 5.56804 31.904 5.95204 32.448C6.33604 32.992 6.91204 33.264 7.68004 33.264C8.80004 33.264 9.95204 32.592 11.136 31.248C12.32 29.872 13.488 28.096 14.64 25.92C15.824 23.744 16.672 22.096 17.184 20.976C13.408 21.424 10.496 22.624 8.44804 24.576C6.40004 26.528 5.37604 28.48 5.37604 30.432ZM27.6 15.84C27.6 10.592 27.456 7.36002 27.168 6.14402C27.136 6.11202 27.04 6.09602 26.88 6.09602C26.72 6.09602 26.624 6.11202 26.592 6.14402C26.528 7.48802 25.44 11.248 23.328 17.424C24.576 17.52 26 17.696 27.6 17.952V15.84ZM53.8197 17.184C53.8197 18.592 53.4197 20.784 52.6197 23.76C51.8197 26.704 51.4197 28.624 51.4197 29.52C51.4197 30.416 51.5957 30.864 51.9477 30.864C52.2997 30.864 52.9397 30.704 53.8677 30.384L54.2997 30.192L55.1637 32.592C54.0757 33.424 52.7157 34.16 51.0837 34.8C49.4837 35.44 48.0277 35.76 46.7157 35.76C45.4037 35.76 44.3637 35.392 43.5957 34.656C42.8597 33.92 42.4917 32.864 42.4917 31.488C42.4917 30.08 42.8757 27.952 43.6437 25.104C44.4437 22.224 44.8437 20.4 44.8437 19.632C44.8437 18.448 44.4277 17.328 43.5957 16.272L43.2117 15.744L43.3557 14.928C45.0197 14.416 48.2517 14.16 53.0517 14.16C53.5637 14.736 53.8197 15.744 53.8197 17.184ZM50.2197 10.416C48.7797 10.416 47.6437 10.032 46.8117 9.26402C46.0117 8.49602 45.6117 7.52002 45.6117 6.33602C45.6117 5.12002 46.1077 4.11202 47.0997 3.31202C48.1237 2.48002 49.3557 2.06402 50.7957 2.06402C52.2357 2.06402 53.3557 2.40002 54.1557 3.07202C54.9557 3.74402 55.3557 4.68802 55.3557 5.90402C55.3557 7.12002 54.8597 8.17602 53.8677 9.07202C52.9077 9.96802 51.6917 10.416 50.2197 10.416ZM57.6503 35.472H57.2663C57.1703 35.024 57.1223 34.336 57.1223 33.408C57.1223 32.448 57.5063 30 58.2743 26.064C59.0743 22.096 59.4743 19.856 59.4743 19.344C59.4743 18.8 59.3303 18.256 59.0423 17.712C58.7543 17.136 58.4663 16.704 58.1783 16.416L57.7463 15.984L57.8423 15.264C59.7623 14.656 62.9463 14.352 67.3943 14.352C67.8103 15.152 68.0663 16.096 68.1623 17.184C70.1143 15.008 71.8423 13.92 73.3463 13.92C75.2983 13.92 76.3703 15.568 76.5623 18.864C76.4983 18.928 76.4183 19.04 76.3223 19.2C76.2263 19.328 76.0023 19.568 75.6503 19.92C75.2983 20.272 74.9303 20.592 74.5463 20.88C73.4583 21.616 72.3063 22.048 71.0903 22.176C71.0583 22.176 70.8343 21.824 70.4183 21.12C70.0343 20.416 69.6983 20.064 69.4103 20.064C69.1543 20.064 68.6583 20.352 67.9223 20.928C67.8263 21.504 67.6343 22.48 67.3463 23.856C67.0903 25.232 66.8823 26.368 66.7223 27.264C66.2423 29.632 66.0023 31.616 66.0023 33.216L66.0503 34.656C64.6423 35.2 61.8423 35.472 57.6503 35.472ZM88.5912 36.144C86.5432 36.144 84.8312 35.664 83.4552 34.704C82.1112 33.712 81.4392 32.368 81.4392 30.672C81.4392 28.944 82.0792 27.52 83.3592 26.4C84.6712 25.28 86.3032 24.432 88.2552 23.856C87.5832 22.672 86.3832 20.768 84.6552 18.144C83.4712 18.368 82.4312 18.48 81.5352 18.48C78.6552 18.48 76.3992 17.76 74.7672 16.32C73.1352 14.88 72.3192 12.944 72.3192 10.512C72.3192 9.23202 72.4952 8.06402 72.8472 7.00802L73.0392 6.43202C74.7672 6.46402 76.0952 6.65602 77.0232 7.00802C76.4792 8.19202 76.2072 9.42402 76.2072 10.704C76.2072 11.952 76.7032 13.008 77.6952 13.872C78.7192 14.704 79.9352 15.12 81.3432 15.12C81.8232 15.12 82.3032 15.072 82.7832 14.976C81.4712 12.576 80.8152 10.544 80.8152 8.88002C80.8152 6.48002 81.8712 4.59202 83.9832 3.21602C86.1272 1.80802 88.5432 1.10402 91.2312 1.10402C93.9512 1.10402 96.0472 1.68002 97.5192 2.83202C98.9912 3.95202 99.7272 5.36002 99.7272 7.05602C99.7272 8.72002 99.1192 10.272 97.9032 11.712C96.6872 13.12 95.3272 14.272 93.8232 15.168C95.7752 17.76 97.1992 20.432 98.0952 23.184C100.367 23.28 103.215 23.84 106.639 24.864C106.543 26.368 105.935 27.888 104.815 29.424C103.183 28.208 101.167 27.408 98.7672 27.024C98.7352 29.52 97.6952 31.664 95.6472 33.456C93.5992 35.248 91.2472 36.144 88.5912 36.144ZM91.8072 12.096C92.7992 11.648 93.6152 10.976 94.2552 10.08C94.9272 9.15202 95.2632 8.25602 95.2632 7.39202C95.2632 6.52802 94.9752 5.88802 94.3992 5.47202C93.8232 5.02402 93.0872 4.80002 92.1912 4.80002C91.2952 4.80002 90.5592 5.02402 89.9832 5.47202C89.4072 5.88802 89.1192 6.44802 89.1192 7.15202C89.1192 8.20802 90.0152 9.85602 91.8072 12.096ZM87.6792 32.112C88.3192 32.112 88.8312 31.76 89.2152 31.056C89.6312 30.352 89.8392 29.648 89.8392 28.944C89.8392 28.24 89.7432 27.504 89.5512 26.736C86.9592 27.184 85.6632 28.224 85.6632 29.856C85.6632 30.464 85.8392 30.992 86.1912 31.44C86.5752 31.888 87.0712 32.112 87.6792 32.112ZM112.65 35.76C110.154 35.76 108.186 34.976 106.746 33.408C105.306 31.808 104.586 29.568 104.586 26.688C104.586 23.168 105.626 20.192 107.706 17.76C109.786 15.296 112.522 14.064 115.914 14.064L118.074 14.256C118.842 14.032 119.562 13.92 120.234 13.92C121.834 13.92 122.97 14.464 123.642 15.552C124.346 16.64 124.746 18.192 124.842 20.208C126.186 20.144 127.466 19.936 128.682 19.584L129.354 19.392C129.578 19.616 129.738 20.288 129.834 21.408L129.882 21.936C128.442 22.672 126.682 23.248 124.602 23.664C123.898 27.056 122.506 29.92 120.426 32.256C118.346 34.592 115.754 35.76 112.65 35.76ZM113.61 26.496C113.61 29.472 114.362 30.96 115.866 30.96C116.922 30.96 117.994 30.288 119.082 28.944C120.202 27.6 120.97 25.968 121.386 24.048C118.122 24.048 116.49 22.48 116.49 19.344C116.49 18.8 116.538 18.24 116.634 17.664C116.314 17.664 116.074 17.712 115.914 17.808C115.37 18.384 114.842 19.552 114.33 21.312C113.85 23.04 113.61 24.768 113.61 26.496ZM142.232 18.192L138.008 17.856C137.72 23.264 137.08 28.432 136.088 33.36C135.128 38.288 134.168 41.376 133.208 42.624C131.608 42.592 130.056 42.4 128.552 42.048C127.048 41.728 126.024 41.408 125.48 41.088C126.696 36.992 127.56 33.456 128.072 30.48C128.584 27.472 129.096 23.328 129.608 18.048L126.44 18.384C126.312 17.776 126.248 17.168 126.248 16.56C126.248 15.92 126.328 15.232 126.488 14.496H129.944C130.424 9.72802 131.096 6.51202 131.96 4.84802C133.08 2.64002 134.424 1.23202 135.992 0.62402C136.952 0.208019 138.168 1.90735e-05 139.64 1.90735e-05C141.112 1.90735e-05 142.344 0.432019 143.336 1.29602C144.36 2.12802 144.872 3.26402 144.872 4.70402C144.872 6.11202 144.216 7.74402 142.904 9.60002C141.592 11.456 140.008 13.088 138.152 14.496H143C143 15.936 142.744 17.168 142.232 18.192ZM140.84 3.60002C139.496 3.60002 138.648 5.95202 138.296 10.656C139.416 9.76002 140.312 8.78402 140.984 7.72802C141.688 6.64002 142.04 5.68002 142.04 4.84802C142.04 4.01602 141.64 3.60002 140.84 3.60002ZM158.701 18.192L154.573 17.856C153.293 23.584 152.589 26.912 152.461 27.84C152.365 28.768 152.317 29.536 152.317 30.144C152.317 30.72 152.509 31.008 152.893 31.008C153.341 31.008 154.189 30.72 155.437 30.144L156.589 32.448C155.565 33.376 154.269 34.16 152.701 34.8C151.133 35.44 149.613 35.76 148.141 35.76C146.701 35.76 145.549 35.392 144.685 34.656C143.821 33.888 143.389 32.816 143.389 31.44C143.389 30.064 143.789 27.856 144.589 24.816C145.389 21.776 145.917 19.52 146.173 18.048C145.405 18.112 144.269 18.224 142.765 18.384C142.637 17.712 142.573 17.088 142.573 16.512C142.573 15.904 142.653 15.232 142.813 14.496H146.653C146.685 14.08 146.701 12.688 146.701 10.32L146.605 8.35202C149.709 7.32802 152.669 6.81602 155.485 6.81602C155.709 7.32802 155.821 8.22402 155.821 9.50402C155.821 10.752 155.613 12.416 155.197 14.496H159.517C159.517 15.808 159.245 17.04 158.701 18.192Z" fill="#606C38"/>
</svg>
